<svg width="160" height="25" viewBox="0 0 160 25" fill="none" xmlns="http://www.w3.org/2000/svg">
<g id="Group 843">
<g id="Client W se">
<path id="Vector" d="M159.999 15.489C159.999 15.9752 159.969 16.4818 159.908 17.0085H148.147C148.228 18.0621 148.562 18.8725 149.15 19.4398C149.758 19.9868 150.497 20.2604 151.368 20.2604C152.665 20.2604 153.567 19.7133 154.073 18.6192H159.604C159.321 19.7336 158.804 20.7365 158.054 21.628C157.325 22.5194 156.403 23.2184 155.289 23.7249C154.174 24.2315 152.928 24.4847 151.551 24.4847C149.889 24.4847 148.41 24.1301 147.114 23.421C145.817 22.7119 144.804 21.6989 144.074 20.3819C143.345 19.065 142.98 17.5252 142.98 15.7625C142.98 13.9998 143.335 12.46 144.044 11.1431C144.773 9.82612 145.787 8.81309 147.083 8.10397C148.38 7.39485 149.869 7.04028 151.551 7.04028C153.192 7.04028 154.651 7.38472 155.927 8.07358C157.203 8.76244 158.196 9.74508 158.905 11.0215C159.635 12.2979 159.999 13.7871 159.999 15.489ZM154.681 14.1214C154.681 13.2299 154.377 12.5208 153.769 11.994C153.161 11.4672 152.402 11.2038 151.49 11.2038C150.619 11.2038 149.879 11.4571 149.271 11.9636C148.684 12.4701 148.319 13.1894 148.177 14.1214H154.681Z" fill="black"/>
<path id="Vector_2" d="M135.486 24.4845C134.007 24.4845 132.69 24.2312 131.535 23.7247C130.381 23.2182 129.469 22.5293 128.8 21.6581C128.132 20.7666 127.757 19.7739 127.676 18.6798H132.812C132.873 19.2673 133.146 19.7435 133.632 20.1082C134.119 20.4729 134.716 20.6552 135.425 20.6552C136.074 20.6552 136.57 20.5336 136.915 20.2905C137.279 20.0271 137.462 19.6928 137.462 19.2876C137.462 18.8014 137.208 18.4468 136.702 18.2239C136.195 17.9808 135.375 17.7174 134.24 17.4338C133.025 17.1501 132.012 16.8563 131.201 16.5524C130.391 16.2282 129.692 15.7319 129.104 15.0633C128.517 14.3744 128.223 13.4525 128.223 12.2977C128.223 11.3252 128.486 10.4438 129.013 9.65366C129.56 8.84324 130.35 8.20503 131.383 7.73903C132.437 7.27304 133.683 7.04004 135.122 7.04004C137.249 7.04004 138.92 7.56682 140.136 8.62037C141.372 9.67393 142.081 11.0719 142.263 12.8143H137.462C137.381 12.2268 137.117 11.7608 136.672 11.4163C136.246 11.0719 135.679 10.8997 134.97 10.8997C134.362 10.8997 133.896 11.0213 133.572 11.2644C133.247 11.4873 133.085 11.8013 133.085 12.2065C133.085 12.6928 133.339 13.0575 133.845 13.3006C134.372 13.5437 135.182 13.7868 136.276 14.03C137.533 14.3541 138.556 14.6783 139.346 15.0025C140.136 15.3064 140.825 15.8129 141.413 16.522C142.02 17.2109 142.334 18.1429 142.355 19.318C142.355 20.3108 142.071 21.2022 141.504 21.9924C140.957 22.7623 140.156 23.3701 139.103 23.8159C138.069 24.2616 136.864 24.4845 135.486 24.4845Z" fill="black"/>
<path id="Vector_3" d="M117.66 2.90723L112.098 24.2417H105.807L102.404 10.2011L98.8783 24.2417H92.5873L87.1777 2.90723H92.7393L95.8088 18.437L99.6076 2.90723H105.321L108.968 18.437L112.068 2.90723H117.66Z" fill="black"/>
<path id="Vector_4" d="M77.4823 10.8999V19.0446C77.4823 19.6119 77.614 20.0273 77.8774 20.2907C78.161 20.5338 78.627 20.6554 79.2754 20.6554H81.2508V24.2415H78.5764C74.9902 24.2415 73.1971 22.4991 73.1971 19.0143V10.8999H71.1913V7.4049H73.1971V3.24133H77.4823V7.4049H81.2508V10.8999H77.4823Z" fill="#007FFF"/>
<path id="Vector_5" d="M63.2871 7.16211C65.2929 7.16211 66.9137 7.80032 68.1496 9.07674C69.3855 10.3329 70.0035 12.0956 70.0035 14.3648V24.2418H65.7487V14.9422C65.7487 13.605 65.4144 12.5818 64.7458 11.8727C64.0772 11.1433 63.1655 10.7786 62.0106 10.7786C60.8355 10.7786 59.9035 11.1433 59.2147 11.8727C58.5461 12.5818 58.2118 13.605 58.2118 14.9422V24.2418H53.957V7.40524H58.2118V9.50222C58.7791 8.77283 59.4983 8.20553 60.3695 7.80032C61.261 7.37485 62.2335 7.16211 63.2871 7.16211Z" fill="#007FFF"/>
<path id="Vector_6" d="M52.3704 15.458C52.3704 16.0658 52.3299 16.6128 52.2489 17.0991H39.9405C40.0418 18.3147 40.4673 19.267 41.2169 19.9559C41.9666 20.6447 42.8884 20.9892 43.9825 20.9892C45.5629 20.9892 46.6873 20.3104 47.3559 18.953H51.945C51.4587 20.5738 50.5267 21.911 49.149 22.9646C47.7713 23.9979 46.0795 24.5145 44.0737 24.5145C42.4528 24.5145 40.9941 24.1599 39.6974 23.4508C38.421 22.7214 37.4181 21.6983 36.6887 20.3813C35.9796 19.0644 35.625 17.5448 35.625 15.8227C35.625 14.0803 35.9796 12.5506 36.6887 11.2336C37.3978 9.9167 38.3906 8.90367 39.667 8.19454C40.9434 7.48542 42.4123 7.13086 44.0737 7.13086C45.6743 7.13086 47.1027 7.47529 48.3588 8.16415C49.6352 8.85302 50.6179 9.83566 51.3067 11.1121C52.0159 12.3682 52.3704 13.8169 52.3704 15.458ZM47.9637 14.2424C47.9435 13.1483 47.5484 12.2771 46.7785 11.6287C46.0086 10.9601 45.0665 10.6258 43.9521 10.6258C42.8986 10.6258 42.0071 10.95 41.2777 11.5983C40.5686 12.2264 40.133 13.1078 39.9709 14.2424H47.9637Z" fill="#007FFF"/>
<path id="Vector_7" d="M31.9376 5.39916C31.188 5.39916 30.5599 5.16617 30.0534 4.70017C29.5671 4.21391 29.324 3.61622 29.324 2.9071C29.324 2.19798 29.5671 1.61042 30.0534 1.14442C30.5599 0.658167 31.188 0.415039 31.9376 0.415039C32.6872 0.415039 33.3052 0.658167 33.7914 1.14442C34.298 1.61042 34.5512 2.19798 34.5512 2.9071C34.5512 3.61622 34.298 4.21391 33.7914 4.70017C33.3052 5.16617 32.6872 5.39916 31.9376 5.39916ZM34.0346 7.40497V24.2416H29.7798V7.40497H34.0346Z" fill="#007FFF"/>
<path id="Vector_8" d="M27.0965 1.75195V24.2413H22.8418V1.75195H27.0965Z" fill="#007FFF"/>
<path id="Vector_9" d="M0 13.6045C0 11.5176 0.465995 9.65364 1.39799 8.01252C2.35024 6.35115 3.63679 5.0646 5.25764 4.15287C6.89875 3.22088 8.73234 2.75488 10.7584 2.75488C13.1289 2.75488 15.2056 3.3627 16.9886 4.57834C18.7715 5.79398 20.0175 7.47562 20.7267 9.62324H15.8337C15.3474 8.61021 14.6586 7.85044 13.7671 7.34392C12.8959 6.8374 11.8829 6.58415 10.728 6.58415C9.49212 6.58415 8.38791 6.87793 7.4154 7.46548C6.46315 8.03278 5.71351 8.84321 5.16647 9.89676C4.63969 10.9503 4.3763 12.1862 4.3763 13.6045C4.3763 15.0024 4.63969 16.2383 5.16647 17.3122C5.71351 18.3657 6.46315 19.1863 7.4154 19.7738C8.38791 20.3411 9.49212 20.6248 10.728 20.6248C11.8829 20.6248 12.8959 20.3715 13.7671 19.865C14.6586 19.3382 15.3474 18.5683 15.8337 17.5553H20.7267C20.0175 19.7232 18.7715 21.4149 16.9886 22.6306C15.2259 23.826 13.1492 24.4237 10.7584 24.4237C8.73234 24.4237 6.89875 23.9678 5.25764 23.0561C3.63679 22.1241 2.35024 20.8375 1.39799 19.1964C0.465995 17.5553 0 15.6913 0 13.6045Z" fill="#007FFF"/>
</g>
<g id="Group 844">
<path id="Rectangle 318" d="M119.414 7.41797H124.841V24.2416H119.414V7.41797Z" fill="black"/>
<path id="Ellipse 103" d="M124.841 5.78977C124.841 7.28839 123.626 8.50325 122.128 8.50325C120.629 8.50325 119.414 7.28839 119.414 5.78977C119.414 4.29116 120.629 3.07629 122.128 3.07629C123.626 3.07629 124.841 4.29116 124.841 5.78977Z" fill="white"/>
<path id="Ellipse 104" d="M124.841 4.16172C124.841 5.66034 123.626 6.8752 122.128 6.8752C120.629 6.8752 119.414 5.66034 119.414 4.16172C119.414 2.66311 120.629 1.44824 122.128 1.44824C123.626 1.44824 124.841 2.66311 124.841 4.16172Z" fill="black"/>
<g id="Group 842">
<path id="Vector 3" d="M120.5 14.9406L122.123 7.41797V16.6438L120.5 14.9406Z" fill="white"/>
<path id="Vector 4" d="M123.746 14.9406L122.123 7.41797V16.6438L123.746 14.9406Z" fill="white"/>
</g>
</g>
</g>
</svg>
