<svg width="611" height="814" viewBox="0 0 611 814" fill="none" xmlns="http://www.w3.org/2000/svg">
<g filter="url(#filter0_d_1_308)">
<path d="M434.228 216.425C437.116 216.425 439.457 214.091 439.457 211.212C439.457 208.334 437.116 206 434.228 206C431.341 206 429 208.334 429 211.212C429 214.091 431.341 216.425 434.228 216.425Z" fill="url(#paint0_linear_1_308)"/>
<path d="M434.228 216.425C437.116 216.425 439.457 214.091 439.457 211.212C439.457 208.334 437.116 206 434.228 206C431.341 206 429 208.334 429 211.212C429 214.091 431.341 216.425 434.228 216.425Z" fill="url(#paint1_linear_1_308)"/>
<path d="M464.509 216.425C467.397 216.425 469.738 214.091 469.738 211.212C469.738 208.334 467.397 206 464.509 206C461.622 206 459.281 208.334 459.281 211.212C459.281 214.091 461.622 216.425 464.509 216.425Z" fill="url(#paint2_linear_1_308)"/>
<path d="M464.509 216.425C467.397 216.425 469.738 214.091 469.738 211.212C469.738 208.334 467.397 206 464.509 206C461.622 206 459.281 208.334 459.281 211.212C459.281 214.091 461.622 216.425 464.509 216.425Z" fill="url(#paint3_linear_1_308)"/>
<path d="M494.79 216.425C497.678 216.425 500.019 214.091 500.019 211.212C500.019 208.334 497.678 206 494.79 206C491.903 206 489.562 208.334 489.562 211.212C489.562 214.091 491.903 216.425 494.79 216.425Z" fill="url(#paint4_linear_1_308)"/>
<path d="M494.79 216.425C497.678 216.425 500.019 214.091 500.019 211.212C500.019 208.334 497.678 206 494.79 206C491.903 206 489.562 208.334 489.562 211.212C489.562 214.091 491.903 216.425 494.79 216.425Z" fill="url(#paint5_linear_1_308)"/>
<path d="M525.072 216.425C527.959 216.425 530.3 214.091 530.3 211.212C530.3 208.334 527.959 206 525.072 206C522.184 206 519.843 208.334 519.843 211.212C519.843 214.091 522.184 216.425 525.072 216.425Z" fill="url(#paint6_linear_1_308)"/>
<path d="M525.072 216.425C527.959 216.425 530.3 214.091 530.3 211.212C530.3 208.334 527.959 206 525.072 206C522.184 206 519.843 208.334 519.843 211.212C519.843 214.091 522.184 216.425 525.072 216.425Z" fill="url(#paint7_linear_1_308)"/>
<path d="M555.353 216.425C558.24 216.425 560.581 214.091 560.581 211.212C560.581 208.334 558.24 206 555.353 206C552.465 206 550.124 208.334 550.124 211.212C550.124 214.091 552.465 216.425 555.353 216.425Z" fill="url(#paint8_linear_1_308)"/>
<path d="M555.353 216.425C558.24 216.425 560.581 214.091 560.581 211.212C560.581 208.334 558.24 206 555.353 206C552.465 206 550.124 208.334 550.124 211.212C550.124 214.091 552.465 216.425 555.353 216.425Z" fill="url(#paint9_linear_1_308)"/>
<path d="M434.228 242.596C437.116 242.596 439.457 240.262 439.457 237.383C439.457 234.505 437.116 232.171 434.228 232.171C431.341 232.171 429 234.505 429 237.383C429 240.262 431.341 242.596 434.228 242.596Z" fill="url(#paint10_linear_1_308)"/>
<path d="M434.228 242.596C437.116 242.596 439.457 240.262 439.457 237.383C439.457 234.505 437.116 232.171 434.228 232.171C431.341 232.171 429 234.505 429 237.383C429 240.262 431.341 242.596 434.228 242.596Z" fill="url(#paint11_linear_1_308)"/>
<path d="M464.509 242.596C467.397 242.596 469.738 240.262 469.738 237.383C469.738 234.505 467.397 232.171 464.509 232.171C461.622 232.171 459.281 234.505 459.281 237.383C459.281 240.262 461.622 242.596 464.509 242.596Z" fill="url(#paint12_linear_1_308)"/>
<path d="M464.509 242.596C467.397 242.596 469.738 240.262 469.738 237.383C469.738 234.505 467.397 232.171 464.509 232.171C461.622 232.171 459.281 234.505 459.281 237.383C459.281 240.262 461.622 242.596 464.509 242.596Z" fill="url(#paint13_linear_1_308)"/>
<path d="M494.79 242.596C497.678 242.596 500.019 240.262 500.019 237.383C500.019 234.505 497.678 232.171 494.79 232.171C491.903 232.171 489.562 234.505 489.562 237.383C489.562 240.262 491.903 242.596 494.79 242.596Z" fill="url(#paint14_linear_1_308)"/>
<path d="M494.79 242.596C497.678 242.596 500.019 240.262 500.019 237.383C500.019 234.505 497.678 232.171 494.79 232.171C491.903 232.171 489.562 234.505 489.562 237.383C489.562 240.262 491.903 242.596 494.79 242.596Z" fill="url(#paint15_linear_1_308)"/>
<path d="M525.072 242.596C527.959 242.596 530.3 240.262 530.3 237.383C530.3 234.505 527.959 232.171 525.072 232.171C522.184 232.171 519.843 234.505 519.843 237.383C519.843 240.262 522.184 242.596 525.072 242.596Z" fill="url(#paint16_linear_1_308)"/>
<path d="M525.072 242.596C527.959 242.596 530.3 240.262 530.3 237.383C530.3 234.505 527.959 232.171 525.072 232.171C522.184 232.171 519.843 234.505 519.843 237.383C519.843 240.262 522.184 242.596 525.072 242.596Z" fill="url(#paint17_linear_1_308)"/>
<path d="M555.353 242.596C558.24 242.596 560.581 240.262 560.581 237.383C560.581 234.505 558.24 232.171 555.353 232.171C552.465 232.171 550.124 234.505 550.124 237.383C550.124 240.262 552.465 242.596 555.353 242.596Z" fill="url(#paint18_linear_1_308)"/>
<path d="M555.353 242.596C558.24 242.596 560.581 240.262 560.581 237.383C560.581 234.505 558.24 232.171 555.353 232.171C552.465 232.171 550.124 234.505 550.124 237.383C550.124 240.262 552.465 242.596 555.353 242.596Z" fill="url(#paint19_linear_1_308)"/>
<path d="M434.228 268.712C437.116 268.712 439.457 266.379 439.457 263.5C439.457 260.621 437.116 258.288 434.228 258.288C431.341 258.288 429 260.621 429 263.5C429 266.379 431.341 268.712 434.228 268.712Z" fill="url(#paint20_linear_1_308)"/>
<path d="M434.228 268.712C437.116 268.712 439.457 266.379 439.457 263.5C439.457 260.621 437.116 258.288 434.228 258.288C431.341 258.288 429 260.621 429 263.5C429 266.379 431.341 268.712 434.228 268.712Z" fill="url(#paint21_linear_1_308)"/>
<path d="M464.509 268.712C467.397 268.712 469.738 266.379 469.738 263.5C469.738 260.621 467.397 258.288 464.509 258.288C461.622 258.288 459.281 260.621 459.281 263.5C459.281 266.379 461.622 268.712 464.509 268.712Z" fill="url(#paint22_linear_1_308)"/>
<path d="M464.509 268.712C467.397 268.712 469.738 266.379 469.738 263.5C469.738 260.621 467.397 258.288 464.509 258.288C461.622 258.288 459.281 260.621 459.281 263.5C459.281 266.379 461.622 268.712 464.509 268.712Z" fill="url(#paint23_linear_1_308)"/>
<path d="M494.79 268.712C497.678 268.712 500.019 266.379 500.019 263.5C500.019 260.621 497.678 258.288 494.79 258.288C491.903 258.288 489.562 260.621 489.562 263.5C489.562 266.379 491.903 268.712 494.79 268.712Z" fill="url(#paint24_linear_1_308)"/>
<path d="M494.79 268.712C497.678 268.712 500.019 266.379 500.019 263.5C500.019 260.621 497.678 258.288 494.79 258.288C491.903 258.288 489.562 260.621 489.562 263.5C489.562 266.379 491.903 268.712 494.79 268.712Z" fill="url(#paint25_linear_1_308)"/>
<path d="M525.072 268.712C527.959 268.712 530.3 266.379 530.3 263.5C530.3 260.621 527.959 258.288 525.072 258.288C522.184 258.288 519.843 260.621 519.843 263.5C519.843 266.379 522.184 268.712 525.072 268.712Z" fill="url(#paint26_linear_1_308)"/>
<path d="M525.072 268.712C527.959 268.712 530.3 266.379 530.3 263.5C530.3 260.621 527.959 258.288 525.072 258.288C522.184 258.288 519.843 260.621 519.843 263.5C519.843 266.379 522.184 268.712 525.072 268.712Z" fill="url(#paint27_linear_1_308)"/>
<path d="M555.353 268.712C558.24 268.712 560.581 266.379 560.581 263.5C560.581 260.621 558.24 258.288 555.353 258.288C552.465 258.288 550.124 260.621 550.124 263.5C550.124 266.379 552.465 268.712 555.353 268.712Z" fill="url(#paint28_linear_1_308)"/>
<path d="M555.353 268.712C558.24 268.712 560.581 266.379 560.581 263.5C560.581 260.621 558.24 258.288 555.353 258.288C552.465 258.288 550.124 260.621 550.124 263.5C550.124 266.379 552.465 268.712 555.353 268.712Z" fill="url(#paint29_linear_1_308)"/>
<path d="M434.228 294.883C437.116 294.883 439.457 292.55 439.457 289.671C439.457 286.792 437.116 284.458 434.228 284.458C431.341 284.458 429 286.792 429 289.671C429 292.55 431.341 294.883 434.228 294.883Z" fill="url(#paint30_linear_1_308)"/>
<path d="M434.228 294.883C437.116 294.883 439.457 292.55 439.457 289.671C439.457 286.792 437.116 284.458 434.228 284.458C431.341 284.458 429 286.792 429 289.671C429 292.55 431.341 294.883 434.228 294.883Z" fill="url(#paint31_linear_1_308)"/>
<path d="M464.509 294.883C467.397 294.883 469.738 292.55 469.738 289.671C469.738 286.792 467.397 284.458 464.509 284.458C461.622 284.458 459.281 286.792 459.281 289.671C459.281 292.55 461.622 294.883 464.509 294.883Z" fill="url(#paint32_linear_1_308)"/>
<path d="M464.509 294.883C467.397 294.883 469.738 292.55 469.738 289.671C469.738 286.792 467.397 284.458 464.509 284.458C461.622 284.458 459.281 286.792 459.281 289.671C459.281 292.55 461.622 294.883 464.509 294.883Z" fill="url(#paint33_linear_1_308)"/>
<path d="M494.79 294.883C497.678 294.883 500.019 292.55 500.019 289.671C500.019 286.792 497.678 284.458 494.79 284.458C491.903 284.458 489.562 286.792 489.562 289.671C489.562 292.55 491.903 294.883 494.79 294.883Z" fill="url(#paint34_linear_1_308)"/>
<path d="M494.79 294.883C497.678 294.883 500.019 292.55 500.019 289.671C500.019 286.792 497.678 284.458 494.79 284.458C491.903 284.458 489.562 286.792 489.562 289.671C489.562 292.55 491.903 294.883 494.79 294.883Z" fill="url(#paint35_linear_1_308)"/>
<path d="M525.072 294.883C527.959 294.883 530.3 292.55 530.3 289.671C530.3 286.792 527.959 284.458 525.072 284.458C522.184 284.458 519.843 286.792 519.843 289.671C519.843 292.55 522.184 294.883 525.072 294.883Z" fill="url(#paint36_linear_1_308)"/>
<path d="M525.072 294.883C527.959 294.883 530.3 292.55 530.3 289.671C530.3 286.792 527.959 284.458 525.072 284.458C522.184 284.458 519.843 286.792 519.843 289.671C519.843 292.55 522.184 294.883 525.072 294.883Z" fill="url(#paint37_linear_1_308)"/>
<path d="M555.353 294.883C558.24 294.883 560.581 292.55 560.581 289.671C560.581 286.792 558.24 284.458 555.353 284.458C552.465 284.458 550.124 286.792 550.124 289.671C550.124 292.55 552.465 294.883 555.353 294.883Z" fill="url(#paint38_linear_1_308)"/>
<path d="M555.353 294.883C558.24 294.883 560.581 292.55 560.581 289.671C560.581 286.792 558.24 284.458 555.353 284.458C552.465 284.458 550.124 286.792 550.124 289.671C550.124 292.55 552.465 294.883 555.353 294.883Z" fill="url(#paint39_linear_1_308)"/>
<path d="M434.228 321C437.116 321 439.457 318.666 439.457 315.788C439.457 312.909 437.116 310.575 434.228 310.575C431.341 310.575 429 312.909 429 315.788C429 318.666 431.341 321 434.228 321Z" fill="url(#paint40_linear_1_308)"/>
<path d="M434.228 321C437.116 321 439.457 318.666 439.457 315.788C439.457 312.909 437.116 310.575 434.228 310.575C431.341 310.575 429 312.909 429 315.788C429 318.666 431.341 321 434.228 321Z" fill="url(#paint41_linear_1_308)"/>
<path d="M464.509 321C467.397 321 469.738 318.666 469.738 315.788C469.738 312.909 467.397 310.575 464.509 310.575C461.622 310.575 459.281 312.909 459.281 315.788C459.281 318.666 461.622 321 464.509 321Z" fill="url(#paint42_linear_1_308)"/>
<path d="M464.509 321C467.397 321 469.738 318.666 469.738 315.788C469.738 312.909 467.397 310.575 464.509 310.575C461.622 310.575 459.281 312.909 459.281 315.788C459.281 318.666 461.622 321 464.509 321Z" fill="url(#paint43_linear_1_308)"/>
<path d="M494.79 321C497.678 321 500.019 318.666 500.019 315.788C500.019 312.909 497.678 310.575 494.79 310.575C491.903 310.575 489.562 312.909 489.562 315.788C489.562 318.666 491.903 321 494.79 321Z" fill="url(#paint44_linear_1_308)"/>
<path d="M494.79 321C497.678 321 500.019 318.666 500.019 315.788C500.019 312.909 497.678 310.575 494.79 310.575C491.903 310.575 489.562 312.909 489.562 315.788C489.562 318.666 491.903 321 494.79 321Z" fill="url(#paint45_linear_1_308)"/>
<path d="M525.072 321C527.959 321 530.3 318.666 530.3 315.788C530.3 312.909 527.959 310.575 525.072 310.575C522.184 310.575 519.843 312.909 519.843 315.788C519.843 318.666 522.184 321 525.072 321Z" fill="url(#paint46_linear_1_308)"/>
<path d="M525.072 321C527.959 321 530.3 318.666 530.3 315.788C530.3 312.909 527.959 310.575 525.072 310.575C522.184 310.575 519.843 312.909 519.843 315.788C519.843 318.666 522.184 321 525.072 321Z" fill="url(#paint47_linear_1_308)"/>
<path d="M555.353 321C558.24 321 560.581 318.666 560.581 315.788C560.581 312.909 558.24 310.575 555.353 310.575C552.465 310.575 550.124 312.909 550.124 315.788C550.124 318.666 552.465 321 555.353 321Z" fill="url(#paint48_linear_1_308)"/>
<path d="M555.353 321C558.24 321 560.581 318.666 560.581 315.788C560.581 312.909 558.24 310.575 555.353 310.575C552.465 310.575 550.124 312.909 550.124 315.788C550.124 318.666 552.465 321 555.353 321Z" fill="url(#paint49_linear_1_308)"/>
<circle opacity="0.1" cx="295.5" cy="426.5" r="245.5" fill="#007FFF"/>
<rect x="476.938" y="230.665" width="9.06329" height="60.8832" rx="4" fill="#0F0B0C"/>
<rect x="128" y="266.572" width="9.06329" height="54.2414" rx="4" fill="#0F0B0C"/>
<rect x="128" y="203.475" width="9.06329" height="54.2414" rx="4" fill="#0F0B0C"/>
<rect x="132.398" y="47" width="349.203" height="711.734" rx="42" fill="#262022" stroke="#0F0B0C" stroke-width="2"/>
<path d="M216.367 62.9937H396.5V70.1835C396.5 81.2292 387.546 90.1835 376.5 90.1835H236.367C225.321 90.1835 216.367 81.2292 216.367 70.1835V62.9937Z" fill="#262022"/>
<rect x="261.684" y="68.5806" width="67.9747" height="6.6418" rx="3.3209" fill="#0F0B0C"/>
<path d="M352.448 71.9013C352.448 74.9955 349.875 77.5431 346.651 77.5431C343.427 77.5431 340.854 74.9955 340.854 71.9013C340.854 68.8072 343.427 66.2595 346.651 66.2595C349.875 66.2595 352.448 68.8072 352.448 71.9013Z" stroke="#0F0B0C" stroke-width="2"/>
</g>
<defs>
<filter id="filter0_d_1_308" x="0" y="0" width="610.581" height="813.734" filterUnits="userSpaceOnUse" color-interpolation-filters="sRGB">
<feFlood flood-opacity="0" result="BackgroundImageFix"/>
<feColorMatrix in="SourceAlpha" type="matrix" values="0 0 0 0 0 0 0 0 0 0 0 0 0 0 0 0 0 0 127 0" result="hardAlpha"/>
<feOffset dy="4"/>
<feGaussianBlur stdDeviation="25"/>
<feComposite in2="hardAlpha" operator="out"/>
<feColorMatrix type="matrix" values="0 0 0 0 0 0 0 0 0 0 0 0 0 0 0 0 0 0 0.25 0"/>
<feBlend mode="normal" in2="BackgroundImageFix" result="effect1_dropShadow_1_308"/>
<feBlend mode="normal" in="SourceGraphic" in2="effect1_dropShadow_1_308" result="shape"/>
</filter>
<linearGradient id="paint0_linear_1_308" x1="1121.03" y1="1652.57" x2="408.499" y2="-416.969" gradientUnits="userSpaceOnUse">
<stop/>
<stop offset="1" stop-color="white"/>
</linearGradient>
<linearGradient id="paint1_linear_1_308" x1="1121.03" y1="1652.57" x2="408.499" y2="-416.969" gradientUnits="userSpaceOnUse">
<stop stop-color="#97C3F9"/>
<stop offset="1" stop-color="#93C1F9"/>
</linearGradient>
<linearGradient id="paint2_linear_1_308" x1="1069.74" y1="1539.04" x2="357.201" y2="-530.494" gradientUnits="userSpaceOnUse">
<stop/>
<stop offset="1" stop-color="white"/>
</linearGradient>
<linearGradient id="paint3_linear_1_308" x1="1069.74" y1="1539.04" x2="357.201" y2="-530.494" gradientUnits="userSpaceOnUse">
<stop stop-color="#97C3F9"/>
<stop offset="1" stop-color="#93C1F9"/>
</linearGradient>
<linearGradient id="paint4_linear_1_308" x1="1018.44" y1="1425.51" x2="305.904" y2="-644.019" gradientUnits="userSpaceOnUse">
<stop/>
<stop offset="1" stop-color="white"/>
</linearGradient>
<linearGradient id="paint5_linear_1_308" x1="1018.44" y1="1425.51" x2="305.904" y2="-644.019" gradientUnits="userSpaceOnUse">
<stop stop-color="#97C3F9"/>
<stop offset="1" stop-color="#93C1F9"/>
</linearGradient>
<linearGradient id="paint6_linear_1_308" x1="967.138" y1="1311.98" x2="254.603" y2="-757.551" gradientUnits="userSpaceOnUse">
<stop/>
<stop offset="1" stop-color="white"/>
</linearGradient>
<linearGradient id="paint7_linear_1_308" x1="967.138" y1="1311.98" x2="254.603" y2="-757.551" gradientUnits="userSpaceOnUse">
<stop stop-color="#97C3F9"/>
<stop offset="1" stop-color="#93C1F9"/>
</linearGradient>
<linearGradient id="paint8_linear_1_308" x1="915.839" y1="1198.46" x2="203.304" y2="-871.079" gradientUnits="userSpaceOnUse">
<stop/>
<stop offset="1" stop-color="white"/>
</linearGradient>
<linearGradient id="paint9_linear_1_308" x1="915.839" y1="1198.46" x2="203.304" y2="-871.079" gradientUnits="userSpaceOnUse">
<stop stop-color="#97C3F9"/>
<stop offset="1" stop-color="#93C1F9"/>
</linearGradient>
<linearGradient id="paint10_linear_1_308" x1="1008.51" y1="1402.62" x2="295.977" y2="-666.918" gradientUnits="userSpaceOnUse">
<stop/>
<stop offset="1" stop-color="white"/>
</linearGradient>
<linearGradient id="paint11_linear_1_308" x1="1008.51" y1="1402.62" x2="295.977" y2="-666.918" gradientUnits="userSpaceOnUse">
<stop stop-color="#97C3F9"/>
<stop offset="1" stop-color="#93C1F9"/>
</linearGradient>
<linearGradient id="paint12_linear_1_308" x1="957.211" y1="1289.08" x2="244.676" y2="-780.451" gradientUnits="userSpaceOnUse">
<stop/>
<stop offset="1" stop-color="white"/>
</linearGradient>
<linearGradient id="paint13_linear_1_308" x1="957.211" y1="1289.08" x2="244.676" y2="-780.451" gradientUnits="userSpaceOnUse">
<stop stop-color="#97C3F9"/>
<stop offset="1" stop-color="#93C1F9"/>
</linearGradient>
<linearGradient id="paint14_linear_1_308" x1="905.911" y1="1175.56" x2="193.377" y2="-893.978" gradientUnits="userSpaceOnUse">
<stop/>
<stop offset="1" stop-color="white"/>
</linearGradient>
<linearGradient id="paint15_linear_1_308" x1="905.911" y1="1175.56" x2="193.377" y2="-893.978" gradientUnits="userSpaceOnUse">
<stop stop-color="#97C3F9"/>
<stop offset="1" stop-color="#93C1F9"/>
</linearGradient>
<linearGradient id="paint16_linear_1_308" x1="854.613" y1="1062.03" x2="142.078" y2="-1007.51" gradientUnits="userSpaceOnUse">
<stop/>
<stop offset="1" stop-color="white"/>
</linearGradient>
<linearGradient id="paint17_linear_1_308" x1="854.613" y1="1062.03" x2="142.078" y2="-1007.51" gradientUnits="userSpaceOnUse">
<stop stop-color="#97C3F9"/>
<stop offset="1" stop-color="#93C1F9"/>
</linearGradient>
<linearGradient id="paint18_linear_1_308" x1="803.314" y1="948.501" x2="90.78" y2="-1121.03" gradientUnits="userSpaceOnUse">
<stop/>
<stop offset="1" stop-color="white"/>
</linearGradient>
<linearGradient id="paint19_linear_1_308" x1="803.314" y1="948.501" x2="90.78" y2="-1121.03" gradientUnits="userSpaceOnUse">
<stop stop-color="#97C3F9"/>
<stop offset="1" stop-color="#93C1F9"/>
</linearGradient>
<linearGradient id="paint20_linear_1_308" x1="895.985" y1="1153.26" x2="183.45" y2="-916.279" gradientUnits="userSpaceOnUse">
<stop/>
<stop offset="1" stop-color="white"/>
</linearGradient>
<linearGradient id="paint21_linear_1_308" x1="895.985" y1="1153.26" x2="183.45" y2="-916.279" gradientUnits="userSpaceOnUse">
<stop stop-color="#97C3F9"/>
<stop offset="1" stop-color="#93C1F9"/>
</linearGradient>
<linearGradient id="paint22_linear_1_308" x1="844.686" y1="1039.73" x2="132.151" y2="-1029.81" gradientUnits="userSpaceOnUse">
<stop/>
<stop offset="1" stop-color="white"/>
</linearGradient>
<linearGradient id="paint23_linear_1_308" x1="844.686" y1="1039.73" x2="132.151" y2="-1029.81" gradientUnits="userSpaceOnUse">
<stop stop-color="#97C3F9"/>
<stop offset="1" stop-color="#93C1F9"/>
</linearGradient>
<linearGradient id="paint24_linear_1_308" x1="793.387" y1="926.2" x2="80.8531" y2="-1143.33" gradientUnits="userSpaceOnUse">
<stop/>
<stop offset="1" stop-color="white"/>
</linearGradient>
<linearGradient id="paint25_linear_1_308" x1="793.387" y1="926.2" x2="80.8531" y2="-1143.33" gradientUnits="userSpaceOnUse">
<stop stop-color="#97C3F9"/>
<stop offset="1" stop-color="#93C1F9"/>
</linearGradient>
<linearGradient id="paint26_linear_1_308" x1="742.088" y1="812.671" x2="29.5531" y2="-1256.86" gradientUnits="userSpaceOnUse">
<stop/>
<stop offset="1" stop-color="white"/>
</linearGradient>
<linearGradient id="paint27_linear_1_308" x1="742.088" y1="812.671" x2="29.5531" y2="-1256.86" gradientUnits="userSpaceOnUse">
<stop stop-color="#97C3F9"/>
<stop offset="1" stop-color="#93C1F9"/>
</linearGradient>
<linearGradient id="paint28_linear_1_308" x1="690.789" y1="699.144" x2="-21.7456" y2="-1370.39" gradientUnits="userSpaceOnUse">
<stop/>
<stop offset="1" stop-color="white"/>
</linearGradient>
<linearGradient id="paint29_linear_1_308" x1="690.789" y1="699.144" x2="-21.7456" y2="-1370.39" gradientUnits="userSpaceOnUse">
<stop stop-color="#97C3F9"/>
<stop offset="1" stop-color="#93C1F9"/>
</linearGradient>
<linearGradient id="paint30_linear_1_308" x1="783.459" y1="903.3" x2="70.925" y2="-1166.23" gradientUnits="userSpaceOnUse">
<stop/>
<stop offset="1" stop-color="white"/>
</linearGradient>
<linearGradient id="paint31_linear_1_308" x1="783.459" y1="903.3" x2="70.925" y2="-1166.23" gradientUnits="userSpaceOnUse">
<stop stop-color="#97C3F9"/>
<stop offset="1" stop-color="#93C1F9"/>
</linearGradient>
<linearGradient id="paint32_linear_1_308" x1="732.161" y1="789.773" x2="19.6264" y2="-1279.76" gradientUnits="userSpaceOnUse">
<stop/>
<stop offset="1" stop-color="white"/>
</linearGradient>
<linearGradient id="paint33_linear_1_308" x1="732.161" y1="789.773" x2="19.6264" y2="-1279.76" gradientUnits="userSpaceOnUse">
<stop stop-color="#97C3F9"/>
<stop offset="1" stop-color="#93C1F9"/>
</linearGradient>
<linearGradient id="paint34_linear_1_308" x1="680.862" y1="676.243" x2="-31.672" y2="-1393.29" gradientUnits="userSpaceOnUse">
<stop/>
<stop offset="1" stop-color="white"/>
</linearGradient>
<linearGradient id="paint35_linear_1_308" x1="680.862" y1="676.243" x2="-31.672" y2="-1393.29" gradientUnits="userSpaceOnUse">
<stop stop-color="#97C3F9"/>
<stop offset="1" stop-color="#93C1F9"/>
</linearGradient>
<linearGradient id="paint36_linear_1_308" x1="629.563" y1="562.717" x2="-82.9714" y2="-1506.82" gradientUnits="userSpaceOnUse">
<stop/>
<stop offset="1" stop-color="white"/>
</linearGradient>
<linearGradient id="paint37_linear_1_308" x1="629.563" y1="562.717" x2="-82.9714" y2="-1506.82" gradientUnits="userSpaceOnUse">
<stop stop-color="#97C3F9"/>
<stop offset="1" stop-color="#93C1F9"/>
</linearGradient>
<linearGradient id="paint38_linear_1_308" x1="578.264" y1="449.188" x2="-134.27" y2="-1620.35" gradientUnits="userSpaceOnUse">
<stop/>
<stop offset="1" stop-color="white"/>
</linearGradient>
<linearGradient id="paint39_linear_1_308" x1="578.264" y1="449.188" x2="-134.27" y2="-1620.35" gradientUnits="userSpaceOnUse">
<stop stop-color="#97C3F9"/>
<stop offset="1" stop-color="#93C1F9"/>
</linearGradient>
<linearGradient id="paint40_linear_1_308" x1="670.934" y1="653.942" x2="-41.5996" y2="-1415.59" gradientUnits="userSpaceOnUse">
<stop/>
<stop offset="1" stop-color="white"/>
</linearGradient>
<linearGradient id="paint41_linear_1_308" x1="670.934" y1="653.942" x2="-41.5996" y2="-1415.59" gradientUnits="userSpaceOnUse">
<stop stop-color="#97C3F9"/>
<stop offset="1" stop-color="#93C1F9"/>
</linearGradient>
<linearGradient id="paint42_linear_1_308" x1="619.636" y1="540.415" x2="-92.8983" y2="-1529.12" gradientUnits="userSpaceOnUse">
<stop/>
<stop offset="1" stop-color="white"/>
</linearGradient>
<linearGradient id="paint43_linear_1_308" x1="619.636" y1="540.415" x2="-92.8983" y2="-1529.12" gradientUnits="userSpaceOnUse">
<stop stop-color="#97C3F9"/>
<stop offset="1" stop-color="#93C1F9"/>
</linearGradient>
<linearGradient id="paint44_linear_1_308" x1="568.337" y1="426.888" x2="-144.196" y2="-1642.64" gradientUnits="userSpaceOnUse">
<stop/>
<stop offset="1" stop-color="white"/>
</linearGradient>
<linearGradient id="paint45_linear_1_308" x1="568.337" y1="426.888" x2="-144.196" y2="-1642.64" gradientUnits="userSpaceOnUse">
<stop stop-color="#97C3F9"/>
<stop offset="1" stop-color="#93C1F9"/>
</linearGradient>
<linearGradient id="paint46_linear_1_308" x1="517.039" y1="313.36" x2="-195.496" y2="-1756.17" gradientUnits="userSpaceOnUse">
<stop/>
<stop offset="1" stop-color="white"/>
</linearGradient>
<linearGradient id="paint47_linear_1_308" x1="517.039" y1="313.36" x2="-195.496" y2="-1756.17" gradientUnits="userSpaceOnUse">
<stop stop-color="#97C3F9"/>
<stop offset="1" stop-color="#93C1F9"/>
</linearGradient>
<linearGradient id="paint48_linear_1_308" x1="465.74" y1="199.833" x2="-246.795" y2="-1869.7" gradientUnits="userSpaceOnUse">
<stop/>
<stop offset="1" stop-color="white"/>
</linearGradient>
<linearGradient id="paint49_linear_1_308" x1="553.045" y1="310.016" x2="481.643" y2="128.212" gradientUnits="userSpaceOnUse">
<stop stop-color="#97C3F9"/>
<stop offset="1" stop-color="#93C1F9"/>
</linearGradient>
</defs>
</svg>
