<svg width="371" height="502" viewBox="0 0 371 502" fill="none" xmlns="http://www.w3.org/2000/svg">
<g filter="url(#filter0_d_1_532)">
<path d="M268.711 126.316C270.58 126.316 272.095 124.805 272.095 122.942C272.095 121.079 270.58 119.568 268.711 119.568C266.842 119.568 265.326 121.079 265.326 122.942C265.326 124.805 266.842 126.316 268.711 126.316Z" fill="url(#paint0_linear_1_532)"/>
<path d="M268.711 126.316C270.58 126.316 272.095 124.805 272.095 122.942C272.095 121.079 270.58 119.568 268.711 119.568C266.842 119.568 265.326 121.079 265.326 122.942C265.326 124.805 266.842 126.316 268.711 126.316Z" fill="url(#paint1_linear_1_532)"/>
<path d="M288.312 126.316C290.181 126.316 291.696 124.805 291.696 122.942C291.696 121.079 290.181 119.568 288.312 119.568C286.442 119.568 284.927 121.079 284.927 122.942C284.927 124.805 286.442 126.316 288.312 126.316Z" fill="url(#paint2_linear_1_532)"/>
<path d="M288.312 126.316C290.181 126.316 291.696 124.805 291.696 122.942C291.696 121.079 290.181 119.568 288.312 119.568C286.442 119.568 284.927 121.079 284.927 122.942C284.927 124.805 286.442 126.316 288.312 126.316Z" fill="url(#paint3_linear_1_532)"/>
<path d="M307.913 126.316C309.782 126.316 311.297 124.805 311.297 122.942C311.297 121.079 309.782 119.568 307.913 119.568C306.043 119.568 304.528 121.079 304.528 122.942C304.528 124.805 306.043 126.316 307.913 126.316Z" fill="url(#paint4_linear_1_532)"/>
<path d="M307.913 126.316C309.782 126.316 311.297 124.805 311.297 122.942C311.297 121.079 309.782 119.568 307.913 119.568C306.043 119.568 304.528 121.079 304.528 122.942C304.528 124.805 306.043 126.316 307.913 126.316Z" fill="url(#paint5_linear_1_532)"/>
<path d="M327.513 126.316C329.383 126.316 330.898 124.805 330.898 122.942C330.898 121.079 329.383 119.568 327.513 119.568C325.644 119.568 324.129 121.079 324.129 122.942C324.129 124.805 325.644 126.316 327.513 126.316Z" fill="url(#paint6_linear_1_532)"/>
<path d="M327.513 126.316C329.383 126.316 330.898 124.805 330.898 122.942C330.898 121.079 329.383 119.568 327.513 119.568C325.644 119.568 324.129 121.079 324.129 122.942C324.129 124.805 325.644 126.316 327.513 126.316Z" fill="url(#paint7_linear_1_532)"/>
<path d="M347.114 126.316C348.984 126.316 350.499 124.805 350.499 122.942C350.499 121.079 348.984 119.568 347.114 119.568C345.245 119.568 343.73 121.079 343.73 122.942C343.73 124.805 345.245 126.316 347.114 126.316Z" fill="url(#paint8_linear_1_532)"/>
<path d="M347.114 126.316C348.984 126.316 350.499 124.805 350.499 122.942C350.499 121.079 348.984 119.568 347.114 119.568C345.245 119.568 343.73 121.079 343.73 122.942C343.73 124.805 345.245 126.316 347.114 126.316Z" fill="url(#paint9_linear_1_532)"/>
<path d="M268.711 143.256C270.58 143.256 272.095 141.746 272.095 139.882C272.095 138.019 270.58 136.508 268.711 136.508C266.842 136.508 265.326 138.019 265.326 139.882C265.326 141.746 266.842 143.256 268.711 143.256Z" fill="url(#paint10_linear_1_532)"/>
<path d="M268.711 143.256C270.58 143.256 272.095 141.746 272.095 139.882C272.095 138.019 270.58 136.508 268.711 136.508C266.842 136.508 265.326 138.019 265.326 139.882C265.326 141.746 266.842 143.256 268.711 143.256Z" fill="url(#paint11_linear_1_532)"/>
<path d="M288.312 143.256C290.181 143.256 291.696 141.746 291.696 139.882C291.696 138.019 290.181 136.508 288.312 136.508C286.442 136.508 284.927 138.019 284.927 139.882C284.927 141.746 286.442 143.256 288.312 143.256Z" fill="url(#paint12_linear_1_532)"/>
<path d="M288.312 143.256C290.181 143.256 291.696 141.746 291.696 139.882C291.696 138.019 290.181 136.508 288.312 136.508C286.442 136.508 284.927 138.019 284.927 139.882C284.927 141.746 286.442 143.256 288.312 143.256Z" fill="url(#paint13_linear_1_532)"/>
<path d="M307.913 143.256C309.782 143.256 311.297 141.746 311.297 139.882C311.297 138.019 309.782 136.508 307.913 136.508C306.043 136.508 304.528 138.019 304.528 139.882C304.528 141.746 306.043 143.256 307.913 143.256Z" fill="url(#paint14_linear_1_532)"/>
<path d="M307.913 143.256C309.782 143.256 311.297 141.746 311.297 139.882C311.297 138.019 309.782 136.508 307.913 136.508C306.043 136.508 304.528 138.019 304.528 139.882C304.528 141.746 306.043 143.256 307.913 143.256Z" fill="url(#paint15_linear_1_532)"/>
<path d="M327.513 143.256C329.383 143.256 330.898 141.746 330.898 139.882C330.898 138.019 329.383 136.508 327.513 136.508C325.644 136.508 324.129 138.019 324.129 139.882C324.129 141.746 325.644 143.256 327.513 143.256Z" fill="url(#paint16_linear_1_532)"/>
<path d="M327.513 143.256C329.383 143.256 330.898 141.746 330.898 139.882C330.898 138.019 329.383 136.508 327.513 136.508C325.644 136.508 324.129 138.019 324.129 139.882C324.129 141.746 325.644 143.256 327.513 143.256Z" fill="url(#paint17_linear_1_532)"/>
<path d="M347.114 143.256C348.984 143.256 350.499 141.746 350.499 139.882C350.499 138.019 348.984 136.508 347.114 136.508C345.245 136.508 343.73 138.019 343.73 139.882C343.73 141.746 345.245 143.256 347.114 143.256Z" fill="url(#paint18_linear_1_532)"/>
<path d="M347.114 143.256C348.984 143.256 350.499 141.746 350.499 139.882C350.499 138.019 348.984 136.508 347.114 136.508C345.245 136.508 343.73 138.019 343.73 139.882C343.73 141.746 345.245 143.256 347.114 143.256Z" fill="url(#paint19_linear_1_532)"/>
<path d="M268.711 160.162C270.58 160.162 272.095 158.651 272.095 156.788C272.095 154.924 270.58 153.414 268.711 153.414C266.842 153.414 265.326 154.924 265.326 156.788C265.326 158.651 266.842 160.162 268.711 160.162Z" fill="url(#paint20_linear_1_532)"/>
<path d="M268.711 160.162C270.58 160.162 272.095 158.651 272.095 156.788C272.095 154.924 270.58 153.414 268.711 153.414C266.842 153.414 265.326 154.924 265.326 156.788C265.326 158.651 266.842 160.162 268.711 160.162Z" fill="url(#paint21_linear_1_532)"/>
<path d="M288.312 160.162C290.181 160.162 291.696 158.651 291.696 156.788C291.696 154.924 290.181 153.414 288.312 153.414C286.442 153.414 284.927 154.924 284.927 156.788C284.927 158.651 286.442 160.162 288.312 160.162Z" fill="url(#paint22_linear_1_532)"/>
<path d="M288.312 160.162C290.181 160.162 291.696 158.651 291.696 156.788C291.696 154.924 290.181 153.414 288.312 153.414C286.442 153.414 284.927 154.924 284.927 156.788C284.927 158.651 286.442 160.162 288.312 160.162Z" fill="url(#paint23_linear_1_532)"/>
<path d="M307.913 160.162C309.782 160.162 311.297 158.651 311.297 156.788C311.297 154.924 309.782 153.414 307.913 153.414C306.043 153.414 304.528 154.924 304.528 156.788C304.528 158.651 306.043 160.162 307.913 160.162Z" fill="url(#paint24_linear_1_532)"/>
<path d="M307.913 160.162C309.782 160.162 311.297 158.651 311.297 156.788C311.297 154.924 309.782 153.414 307.913 153.414C306.043 153.414 304.528 154.924 304.528 156.788C304.528 158.651 306.043 160.162 307.913 160.162Z" fill="url(#paint25_linear_1_532)"/>
<path d="M327.513 160.162C329.383 160.162 330.898 158.651 330.898 156.788C330.898 154.924 329.383 153.414 327.513 153.414C325.644 153.414 324.129 154.924 324.129 156.788C324.129 158.651 325.644 160.162 327.513 160.162Z" fill="url(#paint26_linear_1_532)"/>
<path d="M327.513 160.162C329.383 160.162 330.898 158.651 330.898 156.788C330.898 154.924 329.383 153.414 327.513 153.414C325.644 153.414 324.129 154.924 324.129 156.788C324.129 158.651 325.644 160.162 327.513 160.162Z" fill="url(#paint27_linear_1_532)"/>
<path d="M347.114 160.162C348.984 160.162 350.499 158.651 350.499 156.788C350.499 154.924 348.984 153.414 347.114 153.414C345.245 153.414 343.73 154.924 343.73 156.788C343.73 158.651 345.245 160.162 347.114 160.162Z" fill="url(#paint28_linear_1_532)"/>
<path d="M347.114 160.162C348.984 160.162 350.499 158.651 350.499 156.788C350.499 154.924 348.984 153.414 347.114 153.414C345.245 153.414 343.73 154.924 343.73 156.788C343.73 158.651 345.245 160.162 347.114 160.162Z" fill="url(#paint29_linear_1_532)"/>
<path d="M268.711 177.102C270.58 177.102 272.095 175.592 272.095 173.728C272.095 171.865 270.58 170.354 268.711 170.354C266.842 170.354 265.326 171.865 265.326 173.728C265.326 175.592 266.842 177.102 268.711 177.102Z" fill="url(#paint30_linear_1_532)"/>
<path d="M268.711 177.102C270.58 177.102 272.095 175.592 272.095 173.728C272.095 171.865 270.58 170.354 268.711 170.354C266.842 170.354 265.326 171.865 265.326 173.728C265.326 175.592 266.842 177.102 268.711 177.102Z" fill="url(#paint31_linear_1_532)"/>
<path d="M288.312 177.102C290.181 177.102 291.696 175.592 291.696 173.728C291.696 171.865 290.181 170.354 288.312 170.354C286.442 170.354 284.927 171.865 284.927 173.728C284.927 175.592 286.442 177.102 288.312 177.102Z" fill="url(#paint32_linear_1_532)"/>
<path d="M288.312 177.102C290.181 177.102 291.696 175.592 291.696 173.728C291.696 171.865 290.181 170.354 288.312 170.354C286.442 170.354 284.927 171.865 284.927 173.728C284.927 175.592 286.442 177.102 288.312 177.102Z" fill="url(#paint33_linear_1_532)"/>
<path d="M307.913 177.102C309.782 177.102 311.297 175.592 311.297 173.728C311.297 171.865 309.782 170.354 307.913 170.354C306.043 170.354 304.528 171.865 304.528 173.728C304.528 175.592 306.043 177.102 307.913 177.102Z" fill="url(#paint34_linear_1_532)"/>
<path d="M307.913 177.102C309.782 177.102 311.297 175.592 311.297 173.728C311.297 171.865 309.782 170.354 307.913 170.354C306.043 170.354 304.528 171.865 304.528 173.728C304.528 175.592 306.043 177.102 307.913 177.102Z" fill="url(#paint35_linear_1_532)"/>
<path d="M327.513 177.102C329.383 177.102 330.898 175.592 330.898 173.728C330.898 171.865 329.383 170.354 327.513 170.354C325.644 170.354 324.129 171.865 324.129 173.728C324.129 175.592 325.644 177.102 327.513 177.102Z" fill="url(#paint36_linear_1_532)"/>
<path d="M327.513 177.102C329.383 177.102 330.898 175.592 330.898 173.728C330.898 171.865 329.383 170.354 327.513 170.354C325.644 170.354 324.129 171.865 324.129 173.728C324.129 175.592 325.644 177.102 327.513 177.102Z" fill="url(#paint37_linear_1_532)"/>
<path d="M347.114 177.102C348.984 177.102 350.499 175.592 350.499 173.728C350.499 171.865 348.984 170.354 347.114 170.354C345.245 170.354 343.73 171.865 343.73 173.728C343.73 175.592 345.245 177.102 347.114 177.102Z" fill="url(#paint38_linear_1_532)"/>
<path d="M347.114 177.102C348.984 177.102 350.499 175.592 350.499 173.728C350.499 171.865 348.984 170.354 347.114 170.354C345.245 170.354 343.73 171.865 343.73 173.728C343.73 175.592 345.245 177.102 347.114 177.102Z" fill="url(#paint39_linear_1_532)"/>
<path d="M268.711 194.007C270.58 194.007 272.095 192.497 272.095 190.633C272.095 188.77 270.58 187.259 268.711 187.259C266.842 187.259 265.326 188.77 265.326 190.633C265.326 192.497 266.842 194.007 268.711 194.007Z" fill="url(#paint40_linear_1_532)"/>
<path d="M268.711 194.007C270.58 194.007 272.095 192.497 272.095 190.633C272.095 188.77 270.58 187.259 268.711 187.259C266.842 187.259 265.326 188.77 265.326 190.633C265.326 192.497 266.842 194.007 268.711 194.007Z" fill="url(#paint41_linear_1_532)"/>
<path d="M288.312 194.007C290.181 194.007 291.696 192.497 291.696 190.633C291.696 188.77 290.181 187.259 288.312 187.259C286.442 187.259 284.927 188.77 284.927 190.633C284.927 192.497 286.442 194.007 288.312 194.007Z" fill="url(#paint42_linear_1_532)"/>
<path d="M288.312 194.007C290.181 194.007 291.696 192.497 291.696 190.633C291.696 188.77 290.181 187.259 288.312 187.259C286.442 187.259 284.927 188.77 284.927 190.633C284.927 192.497 286.442 194.007 288.312 194.007Z" fill="url(#paint43_linear_1_532)"/>
<path d="M307.913 194.007C309.782 194.007 311.297 192.497 311.297 190.633C311.297 188.77 309.782 187.259 307.913 187.259C306.043 187.259 304.528 188.77 304.528 190.633C304.528 192.497 306.043 194.007 307.913 194.007Z" fill="url(#paint44_linear_1_532)"/>
<path d="M307.913 194.007C309.782 194.007 311.297 192.497 311.297 190.633C311.297 188.77 309.782 187.259 307.913 187.259C306.043 187.259 304.528 188.77 304.528 190.633C304.528 192.497 306.043 194.007 307.913 194.007Z" fill="url(#paint45_linear_1_532)"/>
<path d="M327.513 194.007C329.383 194.007 330.898 192.497 330.898 190.633C330.898 188.77 329.383 187.259 327.513 187.259C325.644 187.259 324.129 188.77 324.129 190.633C324.129 192.497 325.644 194.007 327.513 194.007Z" fill="url(#paint46_linear_1_532)"/>
<path d="M327.513 194.007C329.383 194.007 330.898 192.497 330.898 190.633C330.898 188.77 329.383 187.259 327.513 187.259C325.644 187.259 324.129 188.77 324.129 190.633C324.129 192.497 325.644 194.007 327.513 194.007Z" fill="url(#paint47_linear_1_532)"/>
<path d="M347.114 194.007C348.984 194.007 350.499 192.497 350.499 190.633C350.499 188.77 348.984 187.259 347.114 187.259C345.245 187.259 343.73 188.77 343.73 190.633C343.73 192.497 345.245 194.007 347.114 194.007Z" fill="url(#paint48_linear_1_532)"/>
<path d="M347.114 194.007C348.984 194.007 350.499 192.497 350.499 190.633C350.499 188.77 348.984 187.259 347.114 187.259C345.245 187.259 343.73 188.77 343.73 190.633C343.73 192.497 345.245 194.007 347.114 194.007Z" fill="url(#paint49_linear_1_532)"/>
<circle opacity="0.1" cx="178.912" cy="262.298" r="158.912" fill="#007FFF"/>
<rect x="296.355" y="135.533" width="5.86667" height="39.4097" rx="2.93333" fill="#0F0B0C"/>
<rect x="70.4883" y="158.776" width="5.86667" height="35.1104" rx="2.93333" fill="#0F0B0C"/>
<rect x="70.4883" y="117.933" width="5.86667" height="35.1104" rx="2.93333" fill="#0F0B0C"/>
<rect x="73.6895" y="17" width="225.333" height="460" rx="42" fill="#262022" stroke="#0F0B0C" stroke-width="2"/>
<path d="M127.689 27H244.289C244.289 36.7202 236.41 44.6 226.689 44.6H145.289C135.569 44.6 127.689 36.7202 127.689 27Z" fill="#262022"/>
<rect x="157.023" y="30.6164" width="44" height="4.29924" rx="2.14962" fill="#0F0B0C"/>
<path d="M215.421 32.7659C215.421 34.5663 213.921 36.0651 212.021 36.0651C210.121 36.0651 208.621 34.5663 208.621 32.7659C208.621 30.9655 210.121 29.4667 212.021 29.4667C213.921 29.4667 215.421 30.9655 215.421 32.7659Z" stroke="#0F0B0C" stroke-width="2"/>
</g>
<defs>
<filter id="filter0_d_1_532" x="0" y="0" width="370.499" height="502" filterUnits="userSpaceOnUse" color-interpolation-filters="sRGB">
<feFlood flood-opacity="0" result="BackgroundImageFix"/>
<feColorMatrix in="SourceAlpha" type="matrix" values="0 0 0 0 0 0 0 0 0 0 0 0 0 0 0 0 0 0 127 0" result="hardAlpha"/>
<feOffset dy="4"/>
<feGaussianBlur stdDeviation="10"/>
<feComposite in2="hardAlpha" operator="out"/>
<feColorMatrix type="matrix" values="0 0 0 0 0 0 0 0 0 0 0 0 0 0 0 0 0 0 0.1 0"/>
<feBlend mode="normal" in2="BackgroundImageFix" result="effect1_dropShadow_1_532"/>
<feBlend mode="normal" in="SourceGraphic" in2="effect1_dropShadow_1_532" result="shape"/>
</filter>
<linearGradient id="paint0_linear_1_532" x1="713.279" y1="1055.93" x2="252.056" y2="-283.68" gradientUnits="userSpaceOnUse">
<stop/>
<stop offset="1" stop-color="white"/>
</linearGradient>
<linearGradient id="paint1_linear_1_532" x1="713.279" y1="1055.93" x2="252.056" y2="-283.68" gradientUnits="userSpaceOnUse">
<stop stop-color="#97C3F9"/>
<stop offset="1" stop-color="#93C1F9"/>
</linearGradient>
<linearGradient id="paint2_linear_1_532" x1="680.075" y1="982.445" x2="218.851" y2="-357.165" gradientUnits="userSpaceOnUse">
<stop/>
<stop offset="1" stop-color="white"/>
</linearGradient>
<linearGradient id="paint3_linear_1_532" x1="680.075" y1="982.445" x2="218.851" y2="-357.165" gradientUnits="userSpaceOnUse">
<stop stop-color="#97C3F9"/>
<stop offset="1" stop-color="#93C1F9"/>
</linearGradient>
<linearGradient id="paint4_linear_1_532" x1="646.869" y1="908.959" x2="185.646" y2="-430.649" gradientUnits="userSpaceOnUse">
<stop/>
<stop offset="1" stop-color="white"/>
</linearGradient>
<linearGradient id="paint5_linear_1_532" x1="646.869" y1="908.959" x2="185.646" y2="-430.649" gradientUnits="userSpaceOnUse">
<stop stop-color="#97C3F9"/>
<stop offset="1" stop-color="#93C1F9"/>
</linearGradient>
<linearGradient id="paint6_linear_1_532" x1="613.663" y1="835.471" x2="152.439" y2="-504.139" gradientUnits="userSpaceOnUse">
<stop/>
<stop offset="1" stop-color="white"/>
</linearGradient>
<linearGradient id="paint7_linear_1_532" x1="613.663" y1="835.471" x2="152.439" y2="-504.139" gradientUnits="userSpaceOnUse">
<stop stop-color="#97C3F9"/>
<stop offset="1" stop-color="#93C1F9"/>
</linearGradient>
<linearGradient id="paint8_linear_1_532" x1="580.457" y1="761.985" x2="119.234" y2="-577.625" gradientUnits="userSpaceOnUse">
<stop/>
<stop offset="1" stop-color="white"/>
</linearGradient>
<linearGradient id="paint9_linear_1_532" x1="580.457" y1="761.985" x2="119.234" y2="-577.625" gradientUnits="userSpaceOnUse">
<stop stop-color="#97C3F9"/>
<stop offset="1" stop-color="#93C1F9"/>
</linearGradient>
<linearGradient id="paint10_linear_1_532" x1="640.444" y1="894.138" x2="179.22" y2="-445.472" gradientUnits="userSpaceOnUse">
<stop/>
<stop offset="1" stop-color="white"/>
</linearGradient>
<linearGradient id="paint11_linear_1_532" x1="640.444" y1="894.138" x2="179.22" y2="-445.472" gradientUnits="userSpaceOnUse">
<stop stop-color="#97C3F9"/>
<stop offset="1" stop-color="#93C1F9"/>
</linearGradient>
<linearGradient id="paint12_linear_1_532" x1="607.237" y1="820.649" x2="146.014" y2="-518.961" gradientUnits="userSpaceOnUse">
<stop/>
<stop offset="1" stop-color="white"/>
</linearGradient>
<linearGradient id="paint13_linear_1_532" x1="607.237" y1="820.649" x2="146.014" y2="-518.961" gradientUnits="userSpaceOnUse">
<stop stop-color="#97C3F9"/>
<stop offset="1" stop-color="#93C1F9"/>
</linearGradient>
<linearGradient id="paint14_linear_1_532" x1="574.031" y1="747.161" x2="112.808" y2="-592.447" gradientUnits="userSpaceOnUse">
<stop/>
<stop offset="1" stop-color="white"/>
</linearGradient>
<linearGradient id="paint15_linear_1_532" x1="574.031" y1="747.161" x2="112.808" y2="-592.447" gradientUnits="userSpaceOnUse">
<stop stop-color="#97C3F9"/>
<stop offset="1" stop-color="#93C1F9"/>
</linearGradient>
<linearGradient id="paint16_linear_1_532" x1="540.825" y1="673.675" x2="79.6019" y2="-665.934" gradientUnits="userSpaceOnUse">
<stop/>
<stop offset="1" stop-color="white"/>
</linearGradient>
<linearGradient id="paint17_linear_1_532" x1="540.825" y1="673.675" x2="79.6019" y2="-665.934" gradientUnits="userSpaceOnUse">
<stop stop-color="#97C3F9"/>
<stop offset="1" stop-color="#93C1F9"/>
</linearGradient>
<linearGradient id="paint18_linear_1_532" x1="507.62" y1="600.189" x2="46.3966" y2="-739.421" gradientUnits="userSpaceOnUse">
<stop/>
<stop offset="1" stop-color="white"/>
</linearGradient>
<linearGradient id="paint19_linear_1_532" x1="507.62" y1="600.189" x2="46.3966" y2="-739.421" gradientUnits="userSpaceOnUse">
<stop stop-color="#97C3F9"/>
<stop offset="1" stop-color="#93C1F9"/>
</linearGradient>
<linearGradient id="paint20_linear_1_532" x1="567.605" y1="732.727" x2="106.382" y2="-606.883" gradientUnits="userSpaceOnUse">
<stop/>
<stop offset="1" stop-color="white"/>
</linearGradient>
<linearGradient id="paint21_linear_1_532" x1="567.605" y1="732.727" x2="106.382" y2="-606.883" gradientUnits="userSpaceOnUse">
<stop stop-color="#97C3F9"/>
<stop offset="1" stop-color="#93C1F9"/>
</linearGradient>
<linearGradient id="paint22_linear_1_532" x1="534.4" y1="659.24" x2="73.1763" y2="-680.37" gradientUnits="userSpaceOnUse">
<stop/>
<stop offset="1" stop-color="white"/>
</linearGradient>
<linearGradient id="paint23_linear_1_532" x1="534.4" y1="659.24" x2="73.1763" y2="-680.37" gradientUnits="userSpaceOnUse">
<stop stop-color="#97C3F9"/>
<stop offset="1" stop-color="#93C1F9"/>
</linearGradient>
<linearGradient id="paint24_linear_1_532" x1="501.194" y1="585.753" x2="39.9709" y2="-753.856" gradientUnits="userSpaceOnUse">
<stop/>
<stop offset="1" stop-color="white"/>
</linearGradient>
<linearGradient id="paint25_linear_1_532" x1="501.194" y1="585.753" x2="39.9709" y2="-753.856" gradientUnits="userSpaceOnUse">
<stop stop-color="#97C3F9"/>
<stop offset="1" stop-color="#93C1F9"/>
</linearGradient>
<linearGradient id="paint26_linear_1_532" x1="467.988" y1="512.266" x2="6.76443" y2="-827.343" gradientUnits="userSpaceOnUse">
<stop/>
<stop offset="1" stop-color="white"/>
</linearGradient>
<linearGradient id="paint27_linear_1_532" x1="467.988" y1="512.266" x2="6.76443" y2="-827.343" gradientUnits="userSpaceOnUse">
<stop stop-color="#97C3F9"/>
<stop offset="1" stop-color="#93C1F9"/>
</linearGradient>
<linearGradient id="paint28_linear_1_532" x1="434.783" y1="438.78" x2="-26.4412" y2="-900.83" gradientUnits="userSpaceOnUse">
<stop/>
<stop offset="1" stop-color="white"/>
</linearGradient>
<linearGradient id="paint29_linear_1_532" x1="434.783" y1="438.78" x2="-26.4412" y2="-900.83" gradientUnits="userSpaceOnUse">
<stop stop-color="#97C3F9"/>
<stop offset="1" stop-color="#93C1F9"/>
</linearGradient>
<linearGradient id="paint30_linear_1_532" x1="494.768" y1="570.93" x2="33.5445" y2="-768.679" gradientUnits="userSpaceOnUse">
<stop/>
<stop offset="1" stop-color="white"/>
</linearGradient>
<linearGradient id="paint31_linear_1_532" x1="494.768" y1="570.93" x2="33.5445" y2="-768.679" gradientUnits="userSpaceOnUse">
<stop stop-color="#97C3F9"/>
<stop offset="1" stop-color="#93C1F9"/>
</linearGradient>
<linearGradient id="paint32_linear_1_532" x1="461.563" y1="497.444" x2="0.338871" y2="-842.166" gradientUnits="userSpaceOnUse">
<stop/>
<stop offset="1" stop-color="white"/>
</linearGradient>
<linearGradient id="paint33_linear_1_532" x1="461.563" y1="497.444" x2="0.338871" y2="-842.166" gradientUnits="userSpaceOnUse">
<stop stop-color="#97C3F9"/>
<stop offset="1" stop-color="#93C1F9"/>
</linearGradient>
<linearGradient id="paint34_linear_1_532" x1="428.357" y1="423.956" x2="-32.8666" y2="-915.652" gradientUnits="userSpaceOnUse">
<stop/>
<stop offset="1" stop-color="white"/>
</linearGradient>
<linearGradient id="paint35_linear_1_532" x1="428.357" y1="423.956" x2="-32.8666" y2="-915.652" gradientUnits="userSpaceOnUse">
<stop stop-color="#97C3F9"/>
<stop offset="1" stop-color="#93C1F9"/>
</linearGradient>
<linearGradient id="paint36_linear_1_532" x1="395.151" y1="350.471" x2="-66.0726" y2="-989.139" gradientUnits="userSpaceOnUse">
<stop/>
<stop offset="1" stop-color="white"/>
</linearGradient>
<linearGradient id="paint37_linear_1_532" x1="395.151" y1="350.471" x2="-66.0726" y2="-989.139" gradientUnits="userSpaceOnUse">
<stop stop-color="#97C3F9"/>
<stop offset="1" stop-color="#93C1F9"/>
</linearGradient>
<linearGradient id="paint38_linear_1_532" x1="361.945" y1="276.984" x2="-99.2783" y2="-1062.63" gradientUnits="userSpaceOnUse">
<stop/>
<stop offset="1" stop-color="white"/>
</linearGradient>
<linearGradient id="paint39_linear_1_532" x1="361.945" y1="276.984" x2="-99.2783" y2="-1062.63" gradientUnits="userSpaceOnUse">
<stop stop-color="#97C3F9"/>
<stop offset="1" stop-color="#93C1F9"/>
</linearGradient>
<linearGradient id="paint40_linear_1_532" x1="421.93" y1="409.521" x2="-39.2926" y2="-930.088" gradientUnits="userSpaceOnUse">
<stop/>
<stop offset="1" stop-color="white"/>
</linearGradient>
<linearGradient id="paint41_linear_1_532" x1="421.93" y1="409.521" x2="-39.2926" y2="-930.088" gradientUnits="userSpaceOnUse">
<stop stop-color="#97C3F9"/>
<stop offset="1" stop-color="#93C1F9"/>
</linearGradient>
<linearGradient id="paint42_linear_1_532" x1="388.725" y1="336.035" x2="-72.4983" y2="-1003.57" gradientUnits="userSpaceOnUse">
<stop/>
<stop offset="1" stop-color="white"/>
</linearGradient>
<linearGradient id="paint43_linear_1_532" x1="388.725" y1="336.035" x2="-72.4983" y2="-1003.57" gradientUnits="userSpaceOnUse">
<stop stop-color="#97C3F9"/>
<stop offset="1" stop-color="#93C1F9"/>
</linearGradient>
<linearGradient id="paint44_linear_1_532" x1="355.519" y1="262.549" x2="-105.704" y2="-1077.06" gradientUnits="userSpaceOnUse">
<stop/>
<stop offset="1" stop-color="white"/>
</linearGradient>
<linearGradient id="paint45_linear_1_532" x1="355.519" y1="262.549" x2="-105.704" y2="-1077.06" gradientUnits="userSpaceOnUse">
<stop stop-color="#97C3F9"/>
<stop offset="1" stop-color="#93C1F9"/>
</linearGradient>
<linearGradient id="paint46_linear_1_532" x1="322.314" y1="189.062" x2="-138.91" y2="-1150.55" gradientUnits="userSpaceOnUse">
<stop/>
<stop offset="1" stop-color="white"/>
</linearGradient>
<linearGradient id="paint47_linear_1_532" x1="322.314" y1="189.062" x2="-138.91" y2="-1150.55" gradientUnits="userSpaceOnUse">
<stop stop-color="#97C3F9"/>
<stop offset="1" stop-color="#93C1F9"/>
</linearGradient>
<linearGradient id="paint48_linear_1_532" x1="289.108" y1="115.576" x2="-172.115" y2="-1224.03" gradientUnits="userSpaceOnUse">
<stop/>
<stop offset="1" stop-color="white"/>
</linearGradient>
<linearGradient id="paint49_linear_1_532" x1="345.62" y1="186.898" x2="299.402" y2="69.2159" gradientUnits="userSpaceOnUse">
<stop stop-color="#97C3F9"/>
<stop offset="1" stop-color="#93C1F9"/>
</linearGradient>
</defs>
</svg>
